HIERARCHY
ROOT Hips
{
    OFFSET 0.000000 0.000000 0.000000
    CHANNELS 6 Xposition Yposition Zposition Zrotation Xrotation Yrotation
    JOINT Spine
    {
        OFFSET -0.000000 14.517291 0.000000
        CHANNELS 3 Zrotation Xrotation Yrotation
        JOINT Spine1
        {
            OFFSET -0.000000 37.558300 0.000000
            CHANNELS 3 Zrotation Xrotation Yrotation
            JOINT Neck
            {
                OFFSET -0.000000 37.404057 3.400369
                CHANNELS 3 Zrotation Xrotation Yrotation
                JOINT Head
                {
                    OFFSET -0.000000 24.785618 -3.540803
                    CHANNELS 3 Zrotation Xrotation Yrotation
                    End Site
                    {
                        OFFSET -0.000000 35.408028 0.000000
                    }
                }
            }
            JOINT LeftShoulder
            {
                OFFSET 6.992933 33.973492 -0.192664
                CHANNELS 3 Zrotation Xrotation Yrotation
                JOINT LeftArm
                {
                    OFFSET 21.527611 0.000000 0.000000
                    CHANNELS 3 Zrotation Xrotation Yrotation
                    JOINT LeftForeArm
                    {
                        OFFSET 56.353916 0.000000 0.000000
                        CHANNELS 3 Zrotation Xrotation Yrotation
                        JOINT LeftHand
                        {
                            OFFSET 47.774071 0.000000 0.000000
                            CHANNELS 3 Zrotation Xrotation Yrotation
                            End Site
                            {
                                OFFSET 26.556021 0.000000 0.000000
                            }
                        }
                    }
                }
            }
            JOINT RightShoulder
            {
                OFFSET -7.065357 33.973492 -0.192664
                CHANNELS 3 Zrotation Xrotation Yrotation
                JOINT RightArm
                {
                    OFFSET -21.527611 0.000000 0.000000
                    CHANNELS 3 Zrotation Xrotation Yrotation
                    JOINT RightForeArm
                    {
                        OFFSET -56.353916 0.000000 0.000000
                        CHANNELS 3 Zrotation Xrotation Yrotation
                        JOINT RightHand
                        {
                            OFFSET -47.774071 0.000000 0.000000
                            CHANNELS 3 Zrotation Xrotation Yrotation
                            End Site
                            {
                                OFFSET -26.556021 0.000000 0.000000
                            }
                        }
                    }
                }
            }
        }
    }
    JOINT LeftUpLeg
    {
        OFFSET 17.704014 0.000000 0.000000
        CHANNELS 3 Zrotation Xrotation Yrotation
        JOINT LeftLeg
        {
            OFFSET -0.000000 -81.181816 0.000000
            CHANNELS 3 Zrotation Xrotation Yrotation
            JOINT LeftFoot
            {
                OFFSET -0.000000 -62.821102 0.000000
                CHANNELS 3 Zrotation Xrotation Yrotation
                JOINT LeftToeBase
                {
                    OFFSET -0.000000 -11.507608 26.556021
                    CHANNELS 3 Zrotation Xrotation Yrotation
                    End Site
                    {
                        OFFSET -0.000000 0.000000 7.081605
                    }
                }
            }
        }
    }
    JOINT RightUpLeg
    {
        OFFSET -17.704014 0.000000 0.000000
        CHANNELS 3 Zrotation Xrotation Yrotation
        JOINT RightLeg
        {
            OFFSET -0.000000 -81.181816 0.000000
            CHANNELS 3 Zrotation Xrotation Yrotation
            JOINT RightFoot
            {
                OFFSET -0.000000 -62.821102 0.000000
                CHANNELS 3 Zrotation Xrotation Yrotation
                JOINT RightToeBase
                {
                    OFFSET -0.000000 -11.507608 26.556021
                    CHANNELS 3 Zrotation Xrotation Yrotation
                    End Site
                    {
                        OFFSET -0.000000 0.000000 7.081605
                    }
                }
            }
        }
    }
}
MOTION
Frames:    14
Frame Time:    0.008333
49.636597    157.918930    88.445786    6.081490    6.741765    -69.305794    0.364829    1.428464    2.239507    1.754489    0.249808    0.743480    19.741274    2.145812    13.449492    -12.529745    1.960854    9.862573    11.266238    3.338212    -14.876699    -10.132639    -4.594314    -24.669184    14.308135    -0.327829    -55.208302    0.258309    7.088109    -41.197960    -7.971347    -0.567176    -4.778556    30.492672    -21.572779    42.593987    6.763185    -22.231686    106.656242    15.446067    -26.617548    30.898046    20.655195    -31.096397    8.893861    -27.476852    35.889091    1.225172    6.649297    -10.743950    52.678570    0.000000    0.000000    0.000000    -15.395358    -5.032465    -10.432305    4.286794    42.651302    -5.430375    16.964035    -5.245829    -3.913368    0.000000    0.000000    0.000000    
49.269642    158.093124    88.680115    6.026516    6.878581    -69.263802    0.437598    1.466789    2.193975    1.746792    0.194773    0.729420    19.753696    2.159945    13.416813    -12.484452    1.966909    9.835559    11.327065    3.355988    -14.916680    -10.107265    -4.592056    -24.692335    14.391379    -0.391761    -55.166073    0.376156    7.017699    -41.310619    -7.950473    -0.560647    -4.811840    30.452787    -21.644787    42.529320    6.796655    -22.119556    106.643196    15.443737    -26.550728    30.880589    20.671631    -30.927835    8.788118    -27.368477    35.807102    1.155203    6.662786    -10.741011    52.696316    0.000000    0.000000    0.000000    -15.464197    -5.389396    -10.668322    4.457649    42.561825    -5.736620    17.126802    -5.524216    -3.957510    0.000000    0.000000    0.000000    
48.896076    158.252991    88.922813    5.940228    6.991118    -69.240852    0.544935    1.478112    2.157472    1.720425    0.245242    0.717005    19.732224    2.180763    13.427167    -12.450356    1.935499    9.853866    11.329571    3.307907    -14.950620    -10.054448    -4.543744    -24.681124    14.415597    -0.585234    -55.117310    -0.044661    6.988033    -41.144138    -8.008646    -0.599097    -4.791503    30.431593    -21.657797    42.427155    6.773768    -22.123270    106.648148    15.378627    -26.542809    30.886238    20.682253    -30.709858    8.761444    -27.237499    35.784882    0.987465    6.712158    -10.773558    52.730396    0.000000    0.000000    0.000000    -15.499670    -5.656532    -11.143151    4.189466    42.277790    -5.756686    17.311392    -5.581214    -3.646289    0.000000    0.000000    0.000000    
48.546646    158.407043    89.131760    5.911776    7.129992    -69.234550    0.606405    1.494322    2.135677    1.748176    0.206116    0.710549    19.722643    2.165658    13.417717    -12.414999    1.945968    9.848111    11.352925    3.301753    -14.965954    -10.076122    -4.602987    -24.716497    14.493798    -0.533953    -55.103195    0.079180    7.031868    -41.145611    -8.019333    -0.636636    -4.834988    30.382698    -21.653416    42.352146    6.768943    -22.108616    106.670090    15.453618    -26.512075    30.849277    20.731091    -30.560663    8.798124    -27.098803    35.774277    0.794856    6.751642    -10.774768    52.758865    0.000000    0.000000    0.000000    -15.605416    -6.057824    -11.563882    4.133619    42.017460    -5.722705    17.349991    -5.483073    -3.479883    0.000000    0.000000    0.000000    
48.191334    158.557129    89.336456    5.865028    7.255651    -69.245850    0.694471    1.497690    2.103255    1.748603    0.222691    0.699865    19.720976    2.134457    13.441952    -12.390250    1.977875    9.874612    11.341182    3.254653    -14.971014    -10.077188    -4.578252    -24.706549    14.596237    -0.601245    -55.066143    0.100869    7.004943    -41.198029    -8.068031    -0.618130    -4.850875    30.396694    -21.715506    42.329708    6.771283    -22.045729    106.681526    15.296128    -26.500284    30.812155    20.779232    -30.383032    8.839808    -26.950563    35.770229    0.612872    6.783948    -10.806299    52.790638    0.000000    0.000000    0.000000    -15.652840    -6.395129    -11.812416    3.968487    41.539303    -5.894191    17.588520    -5.238553    -3.102884    0.000000    0.000000    0.000000    
47.843403    158.695221    89.532326    5.835493    7.357149    -69.261368    0.743583    1.516715    2.076282    1.759357    0.180705    0.691842    19.718954    2.170803    13.427474    -12.376686    1.963322    9.866414    11.350709    3.273664    -14.976517    -10.120239    -4.650324    -24.735106    14.624076    -0.614531    -55.056889    0.146782    6.987783    -41.158176    -8.068443    -0.609960    -4.850335    30.319204    -21.714684    42.271404    6.760596    -22.078016    106.677872    15.385630    -26.488567    30.867435    20.806023    -30.223156    8.890398    -26.822176    35.774242    0.482337    6.821570    -10.833833    52.817970    0.000000    0.000000    0.000000    -15.766218    -6.759750    -11.986992    3.946077    41.035652    -6.099911    17.738155    -5.027174    -2.710221    0.000000    0.000000    0.000000    
47.506649    158.824173    89.712929    5.846450    7.469262    -69.285156    0.813230    1.470487    2.050298    1.727300    0.193056    0.683230    19.757732    2.108887    13.454182    -12.335176    2.030525    9.890426    11.369003    3.256779    -14.989587    -10.154469    -4.693834    -24.784576    14.048354    -0.920096    -55.058792    0.469643    6.259925    -41.195354    -8.054274    -0.597677    -4.870227    30.284693    -21.722145    42.232418    6.734718    -22.116758    106.716721    15.384871    -26.508701    30.807934    20.846279    -30.118135    8.934376    -26.707077    35.789738    0.389624    6.823939    -10.874478    52.820004    0.000000    0.000000    0.000000    -15.896215    -7.125674    -12.086376    3.977776    40.359188    -6.379141    17.952942    -4.727812    -2.320948    0.000000    0.000000    0.000000    
47.161983    158.941162    89.871162    5.827458    7.571809    -69.315262    0.871408    1.478405    2.016509    1.712366    0.178285    0.672505    19.762171    2.053122    13.471849    -12.281813    2.081925    9.910421    11.380238    3.242288    -14.941875    -10.218527    -4.836775    -24.841909    14.034248    -0.826112    -55.040314    0.749872    6.237207    -41.346542    -8.048055    -0.656849    -4.879050    30.237797    -21.705992    42.170757    6.751050    -22.074001    106.724152    15.395354    -26.482346    30.834799    20.913612    -29.980804    8.963854    -26.640907    35.784164    0.346754    6.836960    -10.897594    52.821476    0.000000    0.000000    0.000000    -16.050604    -7.530738    -12.071114    4.118322    39.767971    -6.645124    18.148870    -4.457123    -2.180878    0.000000    0.000000    0.000000    
46.826912    159.043915    90.015663    5.824854    7.675017    -69.354362    0.930285    1.482053    1.989004    1.685596    0.124638    0.664446    19.825968    2.100234    13.486328    -12.312653    2.044750    9.917663    11.414263    3.248367    -14.971950    -10.293402    -4.933227    -24.780388    14.013468    -0.839643    -55.112377    0.566407    6.293725    -41.203606    -8.014894    -0.646727    -4.886229    30.129311    -21.610828    42.129105    6.719616    -22.223167    106.754013    15.411036    -26.584320    30.870750    20.990541    -29.869469    9.032569    -26.572245    35.801132    0.302779    6.848483    -10.925344    52.828045    0.000000    0.000000    0.000000    -16.207588    -7.884844    -12.017458    4.246068    38.982098    -6.898546    18.331638    -4.236609    -2.051619    0.000000    0.000000    0.000000    
46.483170    159.138885    90.148125    5.805892    7.773842    -69.400963    0.990963    1.481679    1.962870    1.683162    0.101186    0.656363    19.917727    2.090267    13.536118    -12.395391    2.095252    9.950760    11.386727    3.254727    -14.956021    -10.302753    -4.936468    -24.778875    14.111393    -0.874060    -55.074993    0.780823    6.223819    -41.375790    -8.019106    -0.621004    -4.912090    30.163235    -21.702150    42.162598    6.756662    -22.095978    106.743248    15.482347    -26.487841    30.861082    21.078499    -29.739859    9.083964    -26.527472    35.799904    0.299024    6.896710    -10.909560    52.822281    0.000000    0.000000    0.000000    -16.367800    -8.288255    -11.957891    4.322072    38.238754    -7.106957    18.628754    -3.897659    -2.068417    0.000000    0.000000    0.000000    
46.148563    159.219711    90.255188    5.778166    7.856906    -69.442604    1.016667    1.531887    1.925418    1.707820    0.033593    0.645079    19.859325    2.081503    13.535040    -12.280728    2.100153    9.970594    11.382357    3.251494    -14.939501    -10.364644    -5.052422    -24.748848    14.041135    -0.825514    -55.112362    0.585241    6.314429    -41.347240    -8.018936    -0.669308    -4.898547    30.115349    -21.714617    42.092712    6.787162    -22.008003    106.745071    15.496657    -26.431395    30.899649    21.173450    -29.600616    9.088751    -26.548685    35.778316    0.325456    6.960285    -10.909469    52.847614    0.000000    0.000000    0.000000    -16.549482    -8.693943    -11.802209    4.446498    37.488274    -7.371948    18.825531    -3.533846    -2.146193    0.000000    0.000000    0.000000    
45.800816    159.276505    90.352058    5.736150    7.929292    -69.491478    1.046241    1.558798    1.890750    1.722853    -0.005981    0.634386    19.947216    2.122617    13.572523    -12.375541    2.121485    9.995994    11.389489    3.289567    -14.932846    -10.413341    -5.060747    -24.718550    14.140755    -0.888989    -55.084145    0.730565    6.243086    -41.593941    -8.012317    -0.665421    -4.880547    30.090746    -21.770260    42.076427    6.864943    -21.891741    106.755226    15.439808    -26.423643    30.946545    21.280334    -29.448078    9.200002    -26.528204    35.816486    0.286846    7.035249    -10.917783    52.844315    0.000000    0.000000    0.000000    -16.730125    -8.989163    -11.581222    4.566689    36.508190    -7.644238    18.928448    -3.156559    -2.210256    0.000000    0.000000    0.000000    
45.453903    159.322937    90.429451    5.686661    7.990352    -69.525024    1.064808    1.611933    1.850813    1.736801    -0.042093    0.621830    20.011604    2.138000    13.603147    -12.435045    2.124571    10.015160    11.386200    3.237616    -14.939926    -10.460649    -5.079245    -24.660198    14.167561    -0.813090    -55.090542    0.596437    6.384716    -41.507675    -7.992226    -0.708013    -4.871516    30.026924    -21.764835    42.026634    6.898233    -21.863997    106.782707    15.409415    -26.452034    30.924904    21.382313    -29.290058    9.251333    -26.548080    35.835308    0.295702    7.108018    -10.949725    52.848129    0.000000    0.000000    0.000000    -16.938936    -9.341291    -11.375442    4.657690    35.628368    -7.834864    18.996504    -2.685316    -2.365642    0.000000    0.000000    0.000000    
45.109409    159.353226    90.478958    5.653067    8.038925    -69.566345    1.051639    1.652630    1.816664    1.772883    -0.112252    0.611592    20.030296    2.194844    13.608615    -12.425739    2.111455    10.028438    11.383352    3.321401    -14.950416    -10.472732    -5.129461    -24.637932    14.216452    -0.787471    -55.149456    0.856431    6.350104    -41.188732    -7.969639    -0.697143    -4.852679    29.975630    -21.804922    42.005966    6.926044    -21.775387    106.752754    15.416211    -26.388659    30.967430    21.489899    -29.141920    9.353549    -26.562004    35.877514    0.286630    7.173058    -11.002620    52.837738    0.000000    0.000000    0.000000    -17.154430    -9.688615    -11.088924    4.737838    34.672897    -8.119239    19.033524    -2.154988    -2.516464    0.000000    0.000000    0.000000    
